<svg xmlns="http://www.w3.org/2000/svg" xmlns:xlink="http://www.w3.org/1999/xlink" width="65" height="65" viewBox="0 0 65 65" fill="none"><defs><filter id="filter_0" x="-12" y="-12" width="65" height="65" filterUnits="userSpaceOnUse" color-interpolation-filters="sRGB"><feFlood flood-opacity="0" result="BackgroundImageFix"/>
          <feColorMatrix in="SourceAlpha" type="matrix" values="0 0 0 0 0 0 0 0 0 0 0 0 0 0 0 0 0 0 127 0"/>
          <feOffset dx="0" dy="7"/>
          <feGaussianBlur stdDeviation="6"/>
          <feColorMatrix type="matrix" values="0 0 0 0 0 0 0 0 0 0 0 0 0 0 0 0 0 0 0.06 0"/>
          <feBlend mode="normal" in2="BackgroundImageFix" result="effect1_Shadow"/>
          <feBlend mode="normal" in="SourceGraphic" in2="effect1_Shadow" result="shape"/></filter></defs><g opacity="1" transform="translate(12 5)  rotate(0 20.5 20.5)"><g id="undefined" filter="url(#filter_0)"></g><g opacity="1" transform="translate(9.5 9.5)  rotate(0 11 11)"><path id="路径 2" fill-rule="evenodd" style="fill:#D61C1C" transform="translate(0 0)  rotate(0 11 11)" opacity="1" d="M22,9.78C22,9.24 21.56,8.8 21.02,8.8L9.78,8.8C9.24,8.8 8.8,9.24 8.8,9.78L8.8,12.22C8.8,12.76 9.24,13.2 9.78,13.2C9.78,13.2 9.78,13.2 9.78,13.2L16.62,13.2C17.16,13.2 17.6,13.64 17.6,14.18C17.6,14.18 17.6,14.18 17.6,14.18L17.6,14.42L17.6,14.67C17.6,16.29 16.29,17.6 14.67,17.6L5.38,17.6C4.84,17.6 4.4,17.16 4.4,16.62L4.4,7.33C4.4,5.71 5.71,4.4 7.33,4.4C7.33,4.4 7.33,4.4 7.33,4.4L21.02,4.4C21.56,4.4 22,3.96 22,3.42L22,0.98C22,0.44 21.56,0 21.02,0C21.02,0 21.02,0 21.02,0L7.33,0C3.28,0 0,3.28 0,7.33L0,21.02C0,21.56 0.44,22 0.98,22L15.4,22C19.05,22 22,19.05 22,15.4L22,9.78Z " /></g></g></svg>