<svg xmlns="http://www.w3.org/2000/svg" xmlns:xlink="http://www.w3.org/1999/xlink" width="65" height="65" viewBox="0 0 65 65" fill="none"><defs><filter id="filter_0" x="-12" y="-12" width="65" height="65" filterUnits="userSpaceOnUse" color-interpolation-filters="sRGB"><feFlood flood-opacity="0" result="BackgroundImageFix"/>
          <feColorMatrix in="SourceAlpha" type="matrix" values="0 0 0 0 0 0 0 0 0 0 0 0 0 0 0 0 0 0 127 0"/>
          <feOffset dx="0" dy="7"/>
          <feGaussianBlur stdDeviation="6"/>
          <feColorMatrix type="matrix" values="0 0 0 0 0 0 0 0 0 0 0 0 0 0 0 0 0 0 0.06 0"/>
          <feBlend mode="normal" in2="BackgroundImageFix" result="effect1_Shadow"/>
          <feBlend mode="normal" in="SourceGraphic" in2="effect1_Shadow" result="shape"/></filter><rect id="path_0" x="0" y="0" width="25" height="20" /></defs><g opacity="1" transform="translate(12 5)  rotate(0 20.5 20.5)"><g id="undefined" filter="url(#filter_0)"></g><g opacity="1" transform="translate(8 10.5)  rotate(0 12.5 10)"><mask id="bg-mask-0" fill="white"><use xlink:href="#path_0"></use></mask><g mask="url(#bg-mask-0)" ><g opacity="1" transform="translate(0 0)  rotate(0 12.49999999999998 10.000000000000018)"><path id="路径_797" fill-rule="evenodd" style="fill:#09B570" transform="translate(9.939522577268608 6.853920476994396)  rotate(0 7.530238711365676 6.5730397615028195)" opacity="1" d="M5.95859 4.22514C5.95859 3.71514 5.53859 3.29514 5.01859 3.29514C4.49859 3.29514 4.07859 3.71514 4.07859 4.22514C4.07859 4.73514 4.49859 5.15514 5.01859 5.15514C5.53859 5.15514 5.95859 4.73514 5.95859 4.22514Z M10.703 4.8808C10.883 4.7108 10.983 4.4708 10.983 4.2308C10.983 3.8408 10.753 3.4908 10.393 3.3408C10.033 3.1808 9.62303 3.2608 9.34303 3.5408C9.06303 3.8108 8.98303 4.2208 9.14303 4.5808C9.29303 4.9308 9.65303 5.1608 10.043 5.1508C10.293 5.1608 10.533 5.0608 10.703 4.8808Z M12.46 10.9C14.04 9.84 15.01 8.1 15.06 6.21C15.06 2.78 11.69 0 7.53 0C3.37 0 0 2.78 0 6.21C0 9.64 3.37 12.42 7.53 12.42C8.36 12.42 9.19 12.3 9.99 12.08C10.06 12.06 10.13 12.04 10.21 12.04C10.35 12.05 10.49 12.08 10.61 12.16L12.25 13.1C12.3 13.13 12.35 13.14 12.4 13.15C12.54 13.15 12.65 13.04 12.65 12.9C12.65 12.84 12.63 12.78 12.61 12.72L12.27 11.47C12.26 11.41 12.25 11.36 12.25 11.31C12.25 11.15 12.33 11 12.46 10.9 " /><path id="路径_798" fill-rule="evenodd" style="fill:#09B570" transform="translate(0 0)  rotate(0 8.920000076293945 7.885000228881836)" opacity="1" d="M3.35 13.76L2.94 15.26C2.91 15.33 2.9 15.4 2.89 15.48C2.89 15.64 3.03 15.77 3.19 15.77C3.25 15.77 3.31 15.75 3.37 15.72L5.35 14.59C5.49 14.5 5.66 14.45 5.82 14.45C5.91 14.45 6 14.46 6.09 14.49C7.21 14.81 8.37 14.94 9.54 14.89C9.34 14.3 9.23 13.68 9.23 13.06C9.23 9.31 12.92 6.27 17.47 6.27C17.64 6.27 17.68 6.27 17.84 6.28C17.16 2.72 13.54 0 9.04 0C4.05 0 0 3.34 0 7.45C0.06 9.72 1.22 11.81 3.13 13.08C3.28 13.19 3.38 13.37 3.38 13.57C3.38 13.63 3.37 13.7 3.35 13.76Z M7.09447 5.06916C7.09447 4.63916 6.83447 4.24916 6.43447 4.08916C6.03447 3.92916 5.57447 4.01916 5.26447 4.31916C4.96447 4.61916 4.87447 5.07916 5.03447 5.46916C5.20447 5.86916 5.59447 6.11916 6.02447 6.11916C6.61447 6.11916 7.09447 5.64916 7.09447 5.06916Z M12.8082 5.80916C13.0082 5.61916 13.1182 5.34916 13.1182 5.06916C13.1182 4.63916 12.8582 4.24916 12.4582 4.08916C12.0582 3.92916 11.5982 4.01916 11.2882 4.31916C10.9882 4.61916 10.8982 5.07916 11.0582 5.46916C11.2282 5.86916 11.6182 6.11916 12.0482 6.11916C12.3282 6.11916 12.6082 6.00916 12.8082 5.80916Z " /></g></g></g></g></svg>