<svg xmlns="http://www.w3.org/2000/svg" xmlns:xlink="http://www.w3.org/1999/xlink" width="65" height="65" viewBox="0 0 65 65" fill="none"><defs><filter id="filter_0" x="-12" y="-12" width="65" height="65" filterUnits="userSpaceOnUse" color-interpolation-filters="sRGB"><feFlood flood-opacity="0" result="BackgroundImageFix"/>
          <feColorMatrix in="SourceAlpha" type="matrix" values="0 0 0 0 0 0 0 0 0 0 0 0 0 0 0 0 0 0 127 0"/>
          <feOffset dx="0" dy="7"/>
          <feGaussianBlur stdDeviation="6"/>
          <feColorMatrix type="matrix" values="0 0 0 0 0 0 0 0 0 0 0 0 0 0 0 0 0 0 0.06 0"/>
          <feBlend mode="normal" in2="BackgroundImageFix" result="effect1_Shadow"/>
          <feBlend mode="normal" in="SourceGraphic" in2="effect1_Shadow" result="shape"/></filter><rect id="path_0" x="0" y="0" width="29" height="24" /></defs><g opacity="1" transform="translate(12 5)  rotate(0 20.5 20.5)"><g id="undefined" filter="url(#filter_0)"></g><g opacity="1" transform="translate(6 8.5)  rotate(0 14.5 12)"><mask id="bg-mask-0" fill="white"><use xlink:href="#path_0"></use></mask><g mask="url(#bg-mask-0)" ><g opacity="1" transform="translate(0.18828810567034004 0.1669750433334638)  rotate(0 14.735903082691273 11.78945448126543)"><path id="路径_800" fill-rule="evenodd" style="fill:#FF5757" transform="translate(0 3.3246145767042883)  rotate(0 12.853850905919012 10.127147192913286)" opacity="1" d="M14.07 0.61C12.44 -1 8.11 0.67 4.4 4.34C1.61 7.09 0 10 0 12.52C0 17.33 6.25 20.25 12.36 20.25C20.38 20.25 25.71 15.66 25.71 12C25.71 9.8 23.83 8.54 22.14 8.02L22.14 8.03C21.72 7.9 21.44 7.82 21.65 7.28C22.13 6.11 22.17 5.11 21.66 4.38C20.71 3.03 18.09 3.1 15.09 4.34C15.09 4.34 14.14 4.75 14.39 4.01C14.85 2.55 14.78 1.32 14.07 0.61Z M12.3837 18.5278C7.50374 19.0078 3.29374 16.8278 2.97374 13.6678C2.65374 10.5078 6.35374 7.54776 11.2337 7.07776C16.1037 6.59776 20.3237 8.77776 20.6337 11.9378C20.9537 15.0978 17.2537 18.0478 12.3837 18.5278 " /><path id="路径_801" fill-rule="evenodd" style="fill:#FF5757" transform="translate(19.162139486337615 0)  rotate(0 5.154833339522462 5.4254378908425585)" opacity="1" d="M8.3,2.55L8.3,2.54C6.43,0.5 3.6,-0.41 0.87,0.17C0.27,0.31 -0.1,0.9 0.03,1.49C0.15,2.08 0.74,2.47 1.34,2.35C3.28,1.94 5.29,2.58 6.62,4.03C7.95,5.49 8.39,7.53 7.78,9.39C7.59,9.98 7.91,10.61 8.51,10.8C9.1,10.99 9.74,10.66 9.93,10.08L9.93,10.08C10.79,7.46 10.17,4.59 8.3,2.55Z " /><path id="路径_802" fill-rule="evenodd" style="fill:#FF5757" transform="translate(20.08461242791671 3.9575067653466114)  rotate(0 2.690788173214323 2.780683823833973)" opacity="1" d="M3.98,5.51C4.48,5.68 5.03,5.41 5.2,4.91C5.61,3.63 5.31,2.24 4.4,1.24L4.4,1.24C3.5,0.24 2.12,-0.2 0.79,0.08C0.44,0.15 0.16,0.39 0.05,0.72C-0.06,1.05 0.02,1.42 0.25,1.67C0.49,1.93 0.85,2.04 1.19,1.96C1.84,1.82 2.51,2.04 2.96,2.52C3.4,3.01 3.55,3.69 3.35,4.32C3.19,4.82 3.47,5.35 3.98,5.51Z " /><path id="路径_803" fill-rule="evenodd" style="fill:#FF5757" transform="translate(6.503110279038813 12.673449446099719)  rotate(0 4.6707972668735795 4.030671042266618)" opacity="1" d="M0.4 2.73C-0.1 3.69 -0.13 4.83 0.32 5.82C0.77 6.81 1.65 7.55 2.71 7.82C5.18 8.59 7.84 7.47 9 5.19C9.98 3.01 8.76 0.77 6.35 0.16L6.36 0.16C4.01 -0.42 1.56 0.63 0.4 2.73Z M6.15217 3.45388C5.98217 3.74388 5.62217 3.87388 5.30217 3.75388C5.17217 3.70388 5.06217 3.58388 5.02217 3.44388C4.98217 3.30388 5.00217 3.15388 5.09217 3.03388C5.25217 2.75388 5.60217 2.62388 5.91217 2.73388C6.05217 2.78388 6.16217 2.89388 6.20217 3.03388C6.25217 3.17388 6.22217 3.33388 6.14217 3.45388 M4.58724 5.41682C4.10724 6.15682 3.16724 6.46682 2.34724 6.14682C1.98724 5.98682 1.72724 5.67682 1.62724 5.29682C1.52724 4.92682 1.60724 4.52682 1.84724 4.21682C2.30724 3.49682 3.22724 3.19682 4.04724 3.48682C4.40724 3.64682 4.67724 3.94682 4.78724 4.32682C4.88724 4.70682 4.81724 5.10682 4.58724 5.41682 " /></g></g></g></g></svg>