<svg width="137" height="133" viewBox="0 0 137 133" fill="none" xmlns="http://www.w3.org/2000/svg">
  <path d="M2.33124 3.30759C1.70317 1.98074 2.67095 0.451904 4.13895 0.451904H20.5284C21.3098 0.451904 22.0196 0.906935 22.3458 1.61695L51.7544 65.628C51.9979 66.158 51.9979 66.7679 51.7544 67.2979L22.3458 131.309C22.0196 132.019 21.3098 132.474 20.5284 132.474H4.13895C2.67096 132.474 1.70317 130.945 2.33124 129.618L31.821 67.3186C32.0774 66.777 32.0774 66.1489 31.821 65.6072L2.33124 3.30759Z" fill="#00FFEF"/>
  <path d="M32.158 132H47.2622C48.0439 132 48.7539 131.545 49.0799 130.834L75.6992 72.8342C76.3073 71.5094 75.3392 70 73.8815 70H59.584C58.8106 70 58.1065 70.4459 57.7759 71.145L30.35 129.145C29.7226 130.472 30.6904 132 32.158 132Z" fill="#0056FF"/>
  <path d="M135.386 129.618C136.014 130.945 135.046 132.474 133.578 132.474H117.189C116.408 132.474 115.698 132.019 115.372 131.309L85.9629 67.2979C85.7194 66.7679 85.7194 66.158 85.9629 65.628L115.372 1.61699C115.698 0.906982 116.408 0.45195 117.189 0.45195H133.578C135.046 0.45195 136.014 1.98079 135.386 3.30763L105.896 65.6073C105.64 66.1489 105.64 66.777 105.896 67.3187L135.386 129.618Z" fill="#00FFEF"/>
  <path d="M105.842 0H90.7378C89.9561 0 89.2461 0.45536 88.9201 1.16576L62.3008 59.1658C61.6927 60.4906 62.6608 62 64.1185 62H78.416C79.1894 62 79.8935 61.5541 80.2241 60.855L107.65 2.85496C108.277 1.52817 107.31 0 105.842 0Z" fill="#0056FF"/>
</svg>
