<svg xmlns="http://www.w3.org/2000/svg" xmlns:xlink="http://www.w3.org/1999/xlink" width="40.08851139919534" height="46.28983496421802" viewBox="0 0 40.08851139919534 46.28983496421802" fill="none"><path id="文本 1" fill-rule="evenodd" style="fill:#000000" transform="translate(0 0)  rotate(0 20.044255699597677 23.144917482108976)" opacity="100" d="M28.96 4.98C27.91 6.05 27.91 7.79 27.91 7.79L27.91 14.26C27.91 16 29.04 17.08 29.04 17.08C30.16 18.16 31.9 18.16 31.9 18.16C33.58 18.16 34.57 17.28 34.57 17.28C35.57 16.39 35.57 14.81 35.57 14.81L35.57 13.36C35.57 13.2 35.41 13.2 35.41 13.2L31.81 13.2C31.65 13.2 31.53 13.09 31.53 13.09C31.42 12.98 31.42 12.82 31.42 12.82L31.42 9.85C31.42 9.69 31.53 9.58 31.53 9.58C31.65 9.47 31.81 9.47 31.81 9.47L39.66 9.47C39.82 9.47 39.93 9.58 39.93 9.58C40.05 9.69 40.05 9.85 40.05 9.85L40.05 14.1C40.05 16.55 39.02 18.35 39.02 18.35C37.99 20.16 36.1 21.11 36.1 21.11C34.22 22.06 31.74 22.06 31.74 22.06C29.26 22.06 27.36 21.06 27.36 21.06C25.47 20.06 24.42 18.27 24.42 18.27C23.37 16.49 23.37 14.14 23.37 14.14L23.37 7.92C23.37 5.57 24.42 3.77 24.42 3.77C25.47 1.96 27.36 0.98 27.36 0.98C29.26 0 31.74 0 31.74 0C34.19 0 36.07 0.97 36.07 0.97C37.95 1.93 39 3.59 39 3.59C40.05 5.25 40.05 7.28 40.05 7.28L40.05 7.5C40.05 7.66 39.93 7.78 39.93 7.78C39.82 7.89 39.66 7.89 39.66 7.89L35.89 7.89C35.73 7.89 35.62 7.78 35.62 7.78C35.51 7.66 35.51 7.5 35.51 7.5L35.51 7.41C35.51 5.93 34.48 4.91 34.48 4.91C33.45 3.9 31.74 3.9 31.74 3.9C30 3.9 28.96 4.98 28.96 4.98ZM1.42 21.41L1.42 0.61C1.42 0.45 1.54 0.34 1.54 0.34C1.65 0.23 1.81 0.23 1.81 0.23L13.12 0.23C15.25 0.23 16.86 1.09 16.86 1.09C18.47 1.96 19.35 3.56 19.35 3.56C20.24 5.15 20.24 7.21 20.24 7.21C20.24 9.24 19.32 10.79 19.32 10.79C18.4 12.33 16.74 13.19 16.74 13.19C15.09 14.04 12.93 14.04 12.93 14.04L6.12 14.04C5.96 14.04 5.96 14.2 5.96 14.2L5.96 21.41C5.96 21.57 5.85 21.69 5.85 21.69C5.74 21.8 5.58 21.8 5.58 21.8L1.81 21.8C1.65 21.8 1.54 21.69 1.54 21.69C1.42 21.57 1.42 21.41 1.42 21.41ZM14.83 9.55C15.73 8.7 15.73 7.31 15.73 7.31C15.73 5.89 14.83 5.02 14.83 5.02C13.93 4.15 12.45 4.15 12.45 4.15L6.12 4.15C5.96 4.15 5.96 4.32 5.96 4.32L5.96 10.24C5.96 10.4 6.12 10.4 6.12 10.4L12.45 10.4C13.93 10.4 14.83 9.55 14.83 9.55ZM1.03 42.55C1.03 42.55 2.06 44.33 3.96 45.31C3.96 45.31 5.86 46.29 8.37 46.29C8.37 46.29 10.85 46.29 12.73 45.36C12.73 45.36 14.61 44.42 15.66 42.72C15.66 42.72 16.7 41.01 16.7 38.79C16.7 38.79 16.7 38.66 16.59 38.56C16.59 38.56 16.48 38.46 16.32 38.46L12.55 38.3C12.55 38.3 12.17 38.3 12.17 38.66C12.17 38.66 12.17 40.33 11.12 41.36C11.12 41.36 10.07 42.39 8.37 42.39C8.37 42.39 6.63 42.39 5.58 41.36C5.58 41.36 4.54 40.33 4.54 38.66L4.54 30.9C4.54 30.9 4.54 29.19 5.58 28.16C5.58 28.16 6.63 27.13 8.37 27.13C8.37 27.13 10.07 27.13 11.12 28.16C11.12 28.16 12.17 29.19 12.17 30.9C12.17 30.9 12.17 31.25 12.49 31.25L12.55 31.25L16.32 31.03C16.32 31.03 16.7 30.96 16.7 30.67C16.7 30.67 16.7 28.45 15.66 26.76C15.66 26.76 14.61 25.07 12.73 24.15C12.73 24.15 10.85 23.23 8.37 23.23C8.37 23.23 5.86 23.23 3.96 24.2C3.96 24.2 2.06 25.16 1.03 26.94C1.03 26.94 0 28.71 0 31.03L0 38.46C0 38.46 0 40.78 1.03 42.55ZM32.05 37.47C31.89 37.73 31.6 37.73 31.6 37.73L29.7 37.73C29.41 37.73 29.25 37.47 29.25 37.47L25.95 32.12C25.88 32.03 25.82 32.04 25.82 32.04C25.75 32.06 25.75 32.19 25.75 32.19L25.75 45.36C25.75 45.52 25.64 45.63 25.64 45.63C25.53 45.74 25.37 45.74 25.37 45.74L21.6 45.74C21.44 45.74 21.33 45.63 21.33 45.63C21.21 45.52 21.21 45.36 21.21 45.36L21.21 24.59C21.21 24.43 21.33 24.31 21.33 24.31C21.44 24.2 21.6 24.2 21.6 24.2L25.37 24.2C25.66 24.2 25.82 24.46 25.82 24.46L30.54 31.96C30.64 32.15 30.73 31.96 30.73 31.96L35.49 24.46C35.65 24.2 35.94 24.2 35.94 24.2L39.7 24.2C39.86 24.2 39.98 24.31 39.98 24.31C40.09 24.43 40.09 24.59 40.09 24.59L40.09 45.36C40.09 45.52 39.98 45.63 39.98 45.63C39.86 45.74 39.7 45.74 39.7 45.74L35.94 45.74C35.78 45.74 35.66 45.63 35.66 45.63C35.55 45.52 35.55 45.36 35.55 45.36L35.55 32.15C35.55 32.03 35.49 32.03 35.49 32.03C35.42 32.03 35.36 32.12 35.36 32.12L32.05 37.47Z" /></svg>