<svg xmlns="http://www.w3.org/2000/svg" xmlns:xlink="http://www.w3.org/1999/xlink" width="65" height="65" viewBox="0 0 65 65" fill="none"><defs><filter id="filter_0" x="-12" y="-12" width="65" height="65" filterUnits="userSpaceOnUse" color-interpolation-filters="sRGB"><feFlood flood-opacity="0" result="BackgroundImageFix"/>
          <feColorMatrix in="SourceAlpha" type="matrix" values="0 0 0 0 0 0 0 0 0 0 0 0 0 0 0 0 0 0 127 0"/>
          <feOffset dx="0" dy="7"/>
          <feGaussianBlur stdDeviation="6"/>
          <feColorMatrix type="matrix" values="0 0 0 0 0 0 0 0 0 0 0 0 0 0 0 0 0 0 0.06 0"/>
          <feBlend mode="normal" in2="BackgroundImageFix" result="effect1_Shadow"/>
          <feBlend mode="normal" in="SourceGraphic" in2="effect1_Shadow" result="shape"/></filter></defs><g opacity="1" transform="translate(12 5)  rotate(0 20.5 20.5)"><g id="undefined" filter="url(#filter_0)"></g><path id="路径 1" fill-rule="evenodd" style="fill:#000000" transform="translate(7.5 8)  rotate(0 13 12.5)" opacity="1" d="M16.28,6.62C18.77,4.95 19.86,5.3 19.86,5.3C20.57,7.06 20.12,8.38 19.99,8.7C20.82,9.6 21.32,10.73 21.32,12.14C21.32,17.06 18.28,18.15 15.39,18.47C15.86,18.87 16.27,19.64 16.27,20.84C16.27,22.56 16.25,23.93 16.25,24.37C16.25,24.7 16.49,25.1 17.14,24.98C22.44,23.21 26,18.32 26,12.82C26,5.74 20.18,0 13,0C5.82,0 0,5.74 0,12.82C0,18.49 3.72,23.28 8.89,24.98C9.54,25.09 9.78,24.7 9.78,24.37C9.78,24.06 9.77,23.05 9.77,21.98C6.5,22.57 5.66,21.19 5.4,20.47C5.25,20.11 4.62,18.97 4.06,18.66C3.61,18.42 2.96,17.83 4.05,17.81C5.07,17.8 5.8,18.74 6.05,19.13C7.22,21.07 9.08,20.52 9.83,20.19C9.95,19.35 10.29,18.79 10.66,18.47C7.77,18.15 4.75,17.05 4.75,12.14C4.75,10.75 5.25,9.6 6.08,8.7C5.95,8.38 5.49,7.06 6.21,5.3C6.21,5.3 7.3,4.97 9.78,6.62C10.82,6.33 11.93,6.18 13.03,6.18C14.14,6.18 15.24,6.33 16.28,6.62Z " /></g></svg>