<svg xmlns="http://www.w3.org/2000/svg" xmlns:xlink="http://www.w3.org/1999/xlink" fill="none" version="1.1" width="22" height="22" viewBox="0 0 22 22"><defs><mask id="master_svg1_1_617"><rect x="0" y="0" width="22" height="22" rx="0" fill="#FFFFFF" fill-opacity="1"/></mask></defs><clipPath id="master_svg0_1_612"><rect x="0" y="0" width="22" height="22" rx="0"/></clipPath><g clip-path="url(#master_svg0_1_612)"><g><g><g mask="url(#master_svg1_1_617)"><g><path d="M18.93502507209778,9.26255560874939C18.93502507209778,5.532555608749389,15.905025072097779,2.5025556087493896,12.175025072097778,2.5025556087493896C8.445025072097778,2.5025556087493896,5.415025072097778,5.532555608749389,5.415025072097778,9.26255560874939C5.415025072097778,11.112555608749389,6.165025072097778,12.80255560874939,7.385025072097778,14.02255560874939L2.0050250720977782,19.68255560874939C1.9750250720977784,19.71255560874939,1.9550250720977784,19.742555608749388,1.9350250720977784,19.77255560874939C1.9150250720977784,19.81255560874939,1.8950250720977784,19.84255560874939,1.8750250720977784,19.88255560874939C1.8650250720977783,19.91255560874939,1.8550250720977783,19.95255560874939,1.8450250720977783,19.992555608749388C1.8350250720977783,20.03255560874939,1.8350250720977783,20.07255560874939,1.8350250720977783,20.10255560874939L1.8350250720977783,20.18255560874939C1.8450250720977783,20.20255560874939,1.8450250720977783,20.22255560874939,1.8450250720977783,20.242555608749388C1.8550250720977783,20.26255560874939,1.8550250720977783,20.28255560874939,1.8650250720977783,20.30255560874939L1.8850250720977784,20.35255560874939L1.9150250720977784,20.41255560874939C1.9250250720977784,20.42255560874939,1.9350250720977784,20.44255560874939,1.9450250720977784,20.46255560874939L1.9850250720977782,20.50255560874939C1.9950250720977782,20.52255560874939,2.0150250720977785,20.53255560874939,2.0250250720977783,20.55255560874939C2.0450250720977783,20.56255560874939,2.0550250720977785,20.57255560874939,2.0750250720977785,20.59255560874939C2.0850250720977783,20.60255560874939,2.1050250720977783,20.61255560874939,2.1150250720977786,20.62255560874939L2.175025072097778,20.65255560874939C2.1850250720977784,20.66255560874939,2.2050250720977784,20.67255560874939,2.2250250720977784,20.67255560874939C2.2450250720977785,20.68255560874939,2.2650250720977785,20.69255560874939,2.2850250720977785,20.69255560874939C2.305025072097778,20.70255560874939,2.3250250720977785,20.70255560874939,2.345025072097778,20.71255560874939L2.5250250720977783,20.71255560874939C2.5450250720977783,20.71255560874939,2.5650250720977783,20.70255560874939,2.5850250720977783,20.70255560874939C2.6050250720977783,20.70255560874939,2.6150250720977786,20.69255560874939,2.635025072097778,20.68255560874939C2.655025072097778,20.68255560874939,2.675025072097778,20.67255560874939,2.695025072097778,20.66255560874939C2.715025072097778,20.65255560874939,2.7350250720977782,20.65255560874939,2.7450250720977785,20.64255560874939C2.7650250720977785,20.63255560874939,2.7850250720977785,20.61255560874939,2.7950250720977783,20.60255560874939C2.8150250720977783,20.59255560874939,2.8350250720977783,20.582555608749388,2.845025072097778,20.57255560874939C2.8650250720977786,20.55255560874939,2.8750250720977784,20.54255560874939,2.885025072097778,20.52255560874939L8.315025072097779,14.81255560874939C9.415025072097778,15.57255560874939,10.745025072097778,16.02255560874939,12.175025072097778,16.02255560874939C15.905025072097779,16.02255560874939,18.93502507209778,12.99255560874939,18.93502507209778,9.26255560874939ZM8.655025072097779,13.532555608749389C8.515025072097778,13.42255560874939,8.385025072097779,13.30255560874939,8.265025072097778,13.17255560874939C8.135025072097779,13.05255560874939,8.015025072097778,12.91255560874939,7.905025072097779,12.782555608749389C7.795025072097778,12.64255560874939,7.685025072097778,12.50255560874939,7.585025072097778,12.35255560874939C7.385025072097778,12.05255560874939,7.215025072097778,11.74255560874939,7.0750250720977785,11.41255560874939C6.935025072097778,11.08255560874939,6.8250250720977785,10.73255560874939,6.755025072097778,10.37255560874939C6.675025072097778,10.01255560874939,6.645025072097778,9.64255560874939,6.645025072097778,9.26255560874939C6.645025072097778,8.882555608749389,6.675025072097778,8.51255560874939,6.755025072097778,8.14255560874939C6.8250250720977785,7.78255560874939,6.935025072097778,7.44255560874939,7.0750250720977785,7.102555608749389C7.215025072097778,6.772555608749389,7.385025072097778,6.46255560874939,7.585025072097778,6.16255560874939C7.685025072097778,6.022555608749389,7.795025072097778,5.87255560874939,7.905025072097779,5.74255560874939C8.015025072097778,5.602555608749389,8.135025072097779,5.47255560874939,8.265025072097778,5.3425556087493895C8.385025072097779,5.22255560874939,8.515025072097778,5.102555608749389,8.655025072097779,4.99255560874939C8.79502507209778,4.87255560874939,8.935025072097778,4.772555608749389,9.085025072097778,4.67255560874939C9.375025072097777,4.472555608749389,9.695025072097778,4.3025556087493895,10.025025072097778,4.16255560874939C10.355025072097778,4.022555608749389,10.705025072097778,3.91255560874939,11.055025072097779,3.8325556087493897C11.425025072097778,3.7625556087493894,11.79502507209778,3.7225556087493894,12.175025072097778,3.7225556087493894C12.555025072097779,3.7225556087493894,12.925025072097778,3.7625556087493894,13.29502507209778,3.8325556087493897C13.645025072097779,3.91255560874939,13.995025072097778,4.022555608749389,14.335025072097778,4.16255560874939C14.665025072097778,4.3025556087493895,14.975025072097779,4.472555608749389,15.275025072097778,4.67255560874939C15.415025072097778,4.772555608749389,15.555025072097779,4.87255560874939,15.695025072097778,4.99255560874939C15.835025072097778,5.102555608749389,15.965025072097779,5.22255560874939,16.095025072097776,5.3425556087493895C16.21502507209778,5.47255560874939,16.33502507209778,5.602555608749389,16.445025072097778,5.74255560874939C16.56502507209778,5.87255560874939,16.665025072097777,6.022555608749389,16.765025072097778,6.16255560874939C16.96502507209778,6.46255560874939,17.13502507209778,6.772555608749389,17.275025072097776,7.102555608749389C17.415025072097777,7.44255560874939,17.525025072097776,7.78255560874939,17.595025072097776,8.14255560874939C17.675025072097778,8.51255560874939,17.71502507209778,8.882555608749389,17.71502507209778,9.26255560874939Q17.71502507209778,9.83255560874939,17.595025072097776,10.37255560874939C17.525025072097776,10.73255560874939,17.415025072097777,11.08255560874939,17.275025072097776,11.41255560874939C17.13502507209778,11.74255560874939,16.96502507209778,12.05255560874939,16.765025072097778,12.35255560874939C16.665025072097777,12.50255560874939,16.56502507209778,12.64255560874939,16.445025072097778,12.782555608749389C16.33502507209778,12.91255560874939,16.21502507209778,13.05255560874939,16.095025072097776,13.17255560874939C15.965025072097779,13.30255560874939,15.835025072097778,13.42255560874939,15.695025072097778,13.532555608749389C15.555025072097779,13.64255560874939,15.415025072097778,13.75255560874939,15.275025072097778,13.85255560874939C14.975025072097779,14.05255560874939,14.665025072097778,14.22255560874939,14.335025072097778,14.362555608749389C13.995025072097778,14.50255560874939,13.645025072097779,14.612555608749389,13.29502507209778,14.68255560874939C12.925025072097778,14.76255560874939,12.555025072097779,14.792555608749389,12.175025072097778,14.792555608749389C11.79502507209778,14.792555608749389,11.425025072097778,14.76255560874939,11.055025072097779,14.68255560874939C10.705025072097778,14.612555608749389,10.355025072097778,14.50255560874939,10.025025072097778,14.362555608749389C9.855025072097778,14.292555608749389,9.695025072097778,14.21255560874939,9.535025072097778,14.13255560874939C9.385025072097779,14.042555608749389,9.235025072097779,13.952555608749389,9.085025072097778,13.85255560874939C8.935025072097778,13.75255560874939,8.79502507209778,13.64255560874939,8.655025072097779,13.532555608749389Z" fill-rule="evenodd" transform="matrix(0.9973183274269104,-0.07318546622991562,0.07318546622991562,0.9973183274269104,-0.178229762585838,0.14100820018367521)" fill="#000000" fill-opacity="1"/></g></g></g></g></g></svg>